STARTFONT 2.1
COMMENT
COMMENT Converted from OpenType font "LoveScript.otf" by "otf2bdf 3.0".
COMMENT
FONT -FreeType-Love script-Medium-R-Normal--17-120-100-100-P-155-ISO10646-1
SIZE 12 100 100
FONTBOUNDINGBOX 57 23 -24 -7
STARTPROPERTIES 19
FOUNDRY "FreeType"
FAMILY_NAME "Love script"
WEIGHT_NAME "Medium"
SLANT "R"
SETWIDTH_NAME "Normal"
ADD_STYLE_NAME ""
PIXEL_SIZE 17
POINT_SIZE 120
RESOLUTION_X 100
RESOLUTION_Y 100
SPACING "P"
AVERAGE_WIDTH 155
CHARSET_REGISTRY "ISO10646"
CHARSET_ENCODING "1"
FONT_ASCENT 15
FONT_DESCENT 5
COPYRIGHT "Copyright (c) 2021 by Mightype. All rights reserved."
_OTF_FONTFILE "LoveScript.otf"
_OTF_PSNAME "Lovescript"
ENDPROPERTIES
CHARS 333
STARTCHAR 0020
ENCODING 32
SWIDTH 180 0
DWIDTH 3 0
BBX 0 0 0 0
BITMAP
ENDCHAR
STARTCHAR 0021
ENCODING 33
SWIDTH 840 0
DWIDTH 14 0
BBX 9 11 3 -2
BITMAP
0080
0100
0300
0600
0400
0800
1000
2000
2000
4000
8000
ENDCHAR
STARTCHAR 0022
ENCODING 34
SWIDTH 360 0
DWIDTH 6 0
BBX 2 2 2 13
BITMAP
C0
40
ENDCHAR
STARTCHAR 0023
ENCODING 35
SWIDTH 840 0
DWIDTH 14 0
BBX 10 10 2 0
BITMAP
0240
0280
0480
0500
0A00
3700
6C00
2800
5000
9000
ENDCHAR
STARTCHAR 0024
ENCODING 36
SWIDTH 900 0
DWIDTH 15 0
BBX 11 13 2 -2
BITMAP
01C0
0660
0480
0500
0E00
0400
0400
0C00
1400
A400
4400
E800
9000
ENDCHAR
STARTCHAR 0025
ENCODING 37
SWIDTH 840 0
DWIDTH 14 0
BBX 10 13 2 -2
BITMAP
0640
0A40
0A80
1500
0A00
0400
0400
0800
1700
2500
4A00
CC00
8000
ENDCHAR
STARTCHAR 0026
ENCODING 38
SWIDTH 1020 0
DWIDTH 17 0
BBX 14 13 1 -1
BITMAP
0070
0090
0120
0140
0184
0204
0FC8
32B0
4280
4300
8200
4E00
31E0
ENDCHAR
STARTCHAR 0027
ENCODING 39
SWIDTH 240 0
DWIDTH 4 0
BBX 1 1 1 13
BITMAP
80
ENDCHAR
STARTCHAR 0028
ENCODING 40
SWIDTH 720 0
DWIDTH 12 0
BBX 8 12 1 0
BITMAP
03
04
08
10
20
20
40
40
80
80
80
40
ENDCHAR
STARTCHAR 0029
ENCODING 41
SWIDTH 720 0
DWIDTH 12 0
BBX 7 13 3 -2
BITMAP
04
02
02
02
02
02
04
04
08
10
20
40
80
ENDCHAR
STARTCHAR 002A
ENCODING 42
SWIDTH 540 0
DWIDTH 9 0
BBX 5 4 2 10
BITMAP
E8
30
F0
08
ENDCHAR
STARTCHAR 002B
ENCODING 43
SWIDTH 540 0
DWIDTH 9 0
BBX 5 4 2 5
BITMAP
20
E0
38
40
ENDCHAR
STARTCHAR 002C
ENCODING 44
SWIDTH 360 0
DWIDTH 6 0
BBX 2 2 2 -1
BITMAP
40
80
ENDCHAR
STARTCHAR 002D
ENCODING 45
SWIDTH 360 0
DWIDTH 6 0
BBX 1 1 3 5
BITMAP
80
ENDCHAR
STARTCHAR 002E
ENCODING 46
SWIDTH 300 0
DWIDTH 5 0
BBX 1 1 2 -1
BITMAP
80
ENDCHAR
STARTCHAR 002F
ENCODING 47
SWIDTH 900 0
DWIDTH 15 0
BBX 11 13 2 -1
BITMAP
0020
0040
0080
0100
0300
0200
0400
0800
1000
2000
4000
4000
8000
ENDCHAR
STARTCHAR 0030
ENCODING 48
SWIDTH 780 0
DWIDTH 13 0
BBX 10 12 1 -2
BITMAP
01C0
0240
0440
0840
1040
2080
2100
4200
4400
8800
9000
6000
ENDCHAR
STARTCHAR 0031
ENCODING 49
SWIDTH 780 0
DWIDTH 13 0
BBX 8 10 3 1
BITMAP
07
3A
04
04
08
10
20
40
40
80
ENDCHAR
STARTCHAR 0032
ENCODING 50
SWIDTH 900 0
DWIDTH 15 0
BBX 11 11 2 0
BITMAP
03E0
0420
0820
0840
0080
0100
0600
0C00
3000
4100
BE00
ENDCHAR
STARTCHAR 0033
ENCODING 51
SWIDTH 900 0
DWIDTH 15 0
BBX 12 10 1 0
BITMAP
01F0
0210
0410
0460
0180
0080
0040
8080
8100
FE00
ENDCHAR
STARTCHAR 0034
ENCODING 52
SWIDTH 660 0
DWIDTH 11 0
BBX 7 13 2 -1
BITMAP
02
04
0A
12
24
44
84
F8
10
10
20
20
40
ENDCHAR
STARTCHAR 0035
ENCODING 53
SWIDTH 1020 0
DWIDTH 17 0
BBX 13 11 1 0
BITMAP
00F8
0080
0100
0100
2080
4080
8080
8100
8300
4400
3800
ENDCHAR
STARTCHAR 0036
ENCODING 54
SWIDTH 900 0
DWIDTH 15 0
BBX 12 13 1 -1
BITMAP
0070
0180
0200
0400
0800
1F00
3100
6100
4200
4200
8400
4800
3000
ENDCHAR
STARTCHAR 0037
ENCODING 55
SWIDTH 780 0
DWIDTH 13 0
BBX 9 13 2 -3
BITMAP
3C00
0380
0100
0200
0200
0400
0800
1800
1000
2000
4000
C000
8000
ENDCHAR
STARTCHAR 0038
ENCODING 56
SWIDTH 780 0
DWIDTH 13 0
BBX 11 12 1 -1
BITMAP
03C0
0F20
0420
0440
0480
0700
0C00
3400
4400
8800
9000
6000
ENDCHAR
STARTCHAR 0039
ENCODING 57
SWIDTH 900 0
DWIDTH 15 0
BBX 11 12 3 -1
BITMAP
03C0
0420
0820
1040
1040
10C0
1380
0D00
0200
0400
1800
E000
ENDCHAR
STARTCHAR 003A
ENCODING 58
SWIDTH 360 0
DWIDTH 6 0
BBX 2 5 2 3
BITMAP
40
40
00
00
80
ENDCHAR
STARTCHAR 003B
ENCODING 59
SWIDTH 420 0
DWIDTH 7 0
BBX 2 7 3 0
BITMAP
40
00
00
00
00
80
80
ENDCHAR
STARTCHAR 003C
ENCODING 60
SWIDTH 600 0
DWIDTH 10 0
BBX 5 5 2 2
BITMAP
08
30
C0
80
40
ENDCHAR
STARTCHAR 003D
ENCODING 61
SWIDTH 480 0
DWIDTH 8 0
BBX 2 2 3 4
BITMAP
C0
C0
ENDCHAR
STARTCHAR 003E
ENCODING 62
SWIDTH 600 0
DWIDTH 10 0
BBX 6 6 2 2
BITMAP
10
08
04
18
20
C0
ENDCHAR
STARTCHAR 003F
ENCODING 63
SWIDTH 780 0
DWIDTH 13 0
BBX 10 12 2 -2
BITMAP
0780
0840
1040
1080
0180
0300
0400
1800
2000
4000
8000
8000
ENDCHAR
STARTCHAR 0040
ENCODING 64
SWIDTH 1020 0
DWIDTH 17 0
BBX 14 12 1 1
BITMAP
03E0
0C10
3290
44D0
4890
9924
9328
9E48
8390
4020
20C0
1F00
ENDCHAR
STARTCHAR 0041
ENCODING 65
SWIDTH 1020 0
DWIDTH 17 0
BBX 16 15 0 -2
BITMAP
000F
0036
004C
0188
0218
0410
0C20
1860
30C0
2140
4240
4482
8884
B098
4060
ENDCHAR
STARTCHAR 0042
ENCODING 66
SWIDTH 1020 0
DWIDTH 17 0
BBX 16 17 1 -2
BITMAP
0038
00D0
03AE
3D41
4283
8702
8506
0EE8
0D30
1CC9
1816
10F0
3730
2860
3080
6300
1C00
ENDCHAR
STARTCHAR 0043
ENCODING 67
SWIDTH 900 0
DWIDTH 15 0
BBX 16 14 0 0
BITMAP
000F
0011
1C22
635C
80A0
0180
0300
0202
0604
0408
0810
0820
0840
0F80
ENDCHAR
STARTCHAR 0044
ENCODING 68
SWIDTH 960 0
DWIDTH 16 0
BBX 15 17 1 -2
BITMAP
0038
00D0
03FE
3F62
4282
8702
8502
0E06
0D84
0E0C
1C08
1810
1030
3060
2080
6300
9C00
ENDCHAR
STARTCHAR 0045
ENCODING 69
SWIDTH 840 0
DWIDTH 14 0
BBX 16 16 1 -3
BITMAP
000C
0073
00C1
0FBE
7100
8200
01F0
0120
0600
0818
1020
3040
2080
4300
4C00
3000
ENDCHAR
STARTCHAR 0046
ENCODING 70
SWIDTH 900 0
DWIDTH 15 0
BBX 18 15 1 -3
BITMAP
01FFC0
0E2000
006000
004000
00C000
01B800
0F8000
310000
430000
820000
860000
840000
880000
900000
600000
ENDCHAR
STARTCHAR 0047
ENCODING 71
SWIDTH 780 0
DWIDTH 13 0
BBX 15 15 0 -3
BITMAP
007C
0082
0300
0600
0C30
0870
10E0
1140
16D8
09A0
0340
7E80
8400
9800
6000
ENDCHAR
STARTCHAR 0048
ENCODING 72
SWIDTH 1020 0
DWIDTH 17 0
BBX 18 16 -1 -3
BITMAP
003800
005840
019040
021080
04B080
052100
066200
004380
00BC00
018400
010800
020800
841000
881000
B02200
401C00
ENDCHAR
STARTCHAR 0049
ENCODING 73
SWIDTH 720 0
DWIDTH 12 0
BBX 12 15 0 -2
BITMAP
0070
0190
0230
0420
0460
0A40
0480
0080
0100
0200
4600
8C00
9800
A000
4000
ENDCHAR
STARTCHAR 004A
ENCODING 74
SWIDTH 960 0
DWIDTH 16 0
BBX 17 16 -1 -3
BITMAP
000080
000380
000D80
001180
002180
002100
004300
003200
000600
00E400
412C00
425800
829000
472000
3AC000
010000
ENDCHAR
STARTCHAR 004B
ENCODING 75
SWIDTH 960 0
DWIDTH 16 0
BBX 17 16 1 -4
BITMAP
00C000
014000
064000
084380
08C400
108800
149000
09A000
014000
038000
028000
048000
8C8200
988400
A05800
402000
ENDCHAR
STARTCHAR 004C
ENCODING 76
SWIDTH 960 0
DWIDTH 16 0
BBX 18 15 0 -3
BITMAP
0003C0
000440
000880
001100
003200
102C00
107000
0FC000
00C000
00C000
008000
7F8000
814000
463040
380F80
ENDCHAR
STARTCHAR 004D
ENCODING 77
SWIDTH 1260 0
DWIDTH 21 0
BBX 20 15 1 -2
BITMAP
070030
1900D0
223110
465220
84B420
8D2840
0A70C0
1CE080
38C100
318300
600200
600600
C00400
800440
000380
ENDCHAR
STARTCHAR 004E
ENCODING 78
SWIDTH 1020 0
DWIDTH 17 0
BBX 16 15 1 -2
BITMAP
0707
1909
2213
4222
4446
8C8C
0908
1A18
1410
3830
6060
6040
C040
8088
0070
ENDCHAR
STARTCHAR 004F
ENCODING 79
SWIDTH 1020 0
DWIDTH 17 0
BBX 15 14 1 -1
BITMAP
000E
0032
0044
0088
0112
0362
0684
0C04
3C08
C810
8820
0840
1080
1F00
ENDCHAR
STARTCHAR 0050
ENCODING 80
SWIDTH 900 0
DWIDTH 15 0
BBX 14 14 1 -2
BITMAP
07E0
0910
3118
4218
4610
8410
0CEC
0F40
1980
3600
2000
6000
4000
C000
ENDCHAR
STARTCHAR 0051
ENCODING 81
SWIDTH 1080 0
DWIDTH 18 0
BBX 16 15 1 -1
BITMAP
000F
0011
0022
0044
0099
0162
0382
0E04
3404
4408
8C10
0920
08C0
0922
061C
ENDCHAR
STARTCHAR 0052
ENCODING 82
SWIDTH 840 0
DWIDTH 14 0
BBX 12 14 1 -2
BITMAP
07E0
1A10
2210
4610
8410
8820
0840
1180
3E00
2600
6600
C600
8240
8380
ENDCHAR
STARTCHAR 0053
ENCODING 83
SWIDTH 720 0
DWIDTH 12 0
BBX 14 15 0 -2
BITMAP
00F8
0104
0204
0608
0400
0400
0400
0660
0780
0A00
3200
4200
8400
8800
7000
ENDCHAR
STARTCHAR 0054
ENCODING 84
SWIDTH 720 0
DWIDTH 12 0
BBX 20 16 0 -3
BITMAP
000010
3FFFE0
41A000
822000
846000
884000
48C000
308000
018000
030000
020000
060000
040000
0C0000
080000
080000
ENDCHAR
STARTCHAR 0055
ENCODING 85
SWIDTH 1020 0
DWIDTH 17 0
BBX 16 15 1 -1
BITMAP
0F01
1102
2202
4206
840C
8418
0818
1870
10B0
3120
2220
4440
4850
B020
4000
ENDCHAR
STARTCHAR 0056
ENCODING 86
SWIDTH 840 0
DWIDTH 14 0
BBX 14 14 1 -2
BITMAP
3C00
4404
8404
8408
8408
8410
0C20
0820
0840
1880
1900
1200
1400
1800
ENDCHAR
STARTCHAR 0057
ENCODING 87
SWIDTH 1080 0
DWIDTH 18 0
BBX 21 14 1 -2
BITMAP
1C0008
220030
440040
840880
8C3880
085900
089200
191400
123400
342800
243000
285000
506000
604000
ENDCHAR
STARTCHAR 0058
ENCODING 88
SWIDTH 960 0
DWIDTH 16 0
BBX 19 15 2 -2
BITMAP
07C060
084180
102600
202800
207000
004000
00C000
01C000
02C000
048000
088000
318000
418000
813000
00C000
ENDCHAR
STARTCHAR 0059
ENCODING 89
SWIDTH 900 0
DWIDTH 15 0
BBX 16 16 0 -3
BITMAP
03C1
0422
004E
0054
0094
01EC
0198
0310
003E
0060
07E0
18C0
6180
8300
8C00
7000
ENDCHAR
STARTCHAR 005A
ENCODING 90
SWIDTH 1020 0
DWIDTH 17 0
BBX 18 15 0 -1
BITMAP
001F00
006100
008100
010100
0003C0
000600
001C00
00F800
003800
006000
07DC00
398000
C60000
980000
600000
ENDCHAR
STARTCHAR 005B
ENCODING 91
SWIDTH 900 0
DWIDTH 15 0
BBX 10 12 2 -1
BITMAP
01C0
0100
0200
0400
0400
0800
1000
1000
2000
4000
4000
E000
ENDCHAR
STARTCHAR 005C
ENCODING 92
SWIDTH 900 0
DWIDTH 15 0
BBX 11 13 2 0
BITMAP
8000
4000
2000
3000
1000
0800
0400
0200
0100
0100
0080
0040
0020
ENDCHAR
STARTCHAR 005D
ENCODING 93
SWIDTH 900 0
DWIDTH 15 0
BBX 10 12 3 -1
BITMAP
01C0
0080
0100
0100
0200
0400
0400
0800
1000
1000
2000
C000
ENDCHAR
STARTCHAR 005E
ENCODING 94
SWIDTH 540 0
DWIDTH 9 0
BBX 5 4 2 11
BITMAP
18
28
C8
08
ENDCHAR
STARTCHAR 005F
ENCODING 95
SWIDTH 540 0
DWIDTH 9 0
BBX 5 1 2 -2
BITMAP
F8
ENDCHAR
STARTCHAR 0060
ENCODING 96
SWIDTH 300 0
DWIDTH 5 0
BBX 1 1 2 13
BITMAP
80
ENDCHAR
STARTCHAR 0061
ENCODING 97
SWIDTH 420 0
DWIDTH 7 0
BBX 7 6 -1 2
BITMAP
3A
64
48
9A
F4
38
ENDCHAR
STARTCHAR 0062
ENCODING 98
SWIDTH 480 0
DWIDTH 8 0
BBX 11 12 -2 1
BITMAP
0060
01A0
0240
0680
0D00
0E00
1F00
2900
3200
4780
FC00
7000
ENDCHAR
STARTCHAR 0063
ENCODING 99
SWIDTH 300 0
DWIDTH 5 0
BBX 6 5 -1 3
BITMAP
38
70
44
98
E0
ENDCHAR
STARTCHAR 0064
ENCODING 100
SWIDTH 540 0
DWIDTH 9 0
BBX 13 13 -1 0
BITMAP
0038
0048
0090
0190
0320
0240
3F80
6600
48C0
B880
D100
1200
1C00
ENDCHAR
STARTCHAR 0065
ENCODING 101
SWIDTH 300 0
DWIDTH 5 0
BBX 6 5 -1 2
BITMAP
38
70
44
98
E0
ENDCHAR
STARTCHAR 0066
ENCODING 102
SWIDTH 300 0
DWIDTH 5 0
BBX 11 13 -3 -1
BITMAP
00E0
0140
0240
0480
0B00
1C00
1100
2600
3800
6000
A000
A000
C000
ENDCHAR
STARTCHAR 0067
ENCODING 103
SWIDTH 420 0
DWIDTH 7 0
BBX 14 12 -7 -5
BITMAP
00E8
0190
0124
0278
03C0
0280
1D80
6300
8200
8400
9800
6000
ENDCHAR
STARTCHAR 0068
ENCODING 104
SWIDTH 480 0
DWIDTH 8 0
BBX 11 12 -2 1
BITMAP
0060
01A0
0320
0640
0580
0A00
1D00
3900
3240
6280
C700
8400
ENDCHAR
STARTCHAR 0069
ENCODING 105
SWIDTH 180 0
DWIDTH 3 0
BBX 5 7 -1 2
BITMAP
18
00
20
60
40
B0
C0
ENDCHAR
STARTCHAR 006A
ENCODING 106
SWIDTH 180 0
DWIDTH 3 0
BBX 15 14 -11 -5
BITMAP
0002
0000
0008
0010
0030
002C
0070
01C0
0E80
3100
4200
8400
8800
7000
ENDCHAR
STARTCHAR 006B
ENCODING 107
SWIDTH 420 0
DWIDTH 7 0
BBX 11 12 -2 1
BITMAP
0060
00A0
0320
0640
0580
0A00
1D80
3600
3C00
6900
D200
1C00
ENDCHAR
STARTCHAR 006C
ENCODING 108
SWIDTH 360 0
DWIDTH 6 0
BBX 11 12 -1 0
BITMAP
00E0
0320
0440
0880
1300
3400
6800
4200
8400
9800
A000
4000
ENDCHAR
STARTCHAR 006D
ENCODING 109
SWIDTH 660 0
DWIDTH 11 0
BBX 13 6 -2 2
BITMAP
17E0
3B20
3668
6C50
D8E0
8080
ENDCHAR
STARTCHAR 006E
ENCODING 110
SWIDTH 420 0
DWIDTH 7 0
BBX 9 5 -2 3
BITMAP
1700
3900
3200
4580
8E00
ENDCHAR
STARTCHAR 006F
ENCODING 111
SWIDTH 360 0
DWIDTH 6 0
BBX 6 6 -1 2
BITMAP
38
58
48
94
A8
40
ENDCHAR
STARTCHAR 0070
ENCODING 112
SWIDTH 420 0
DWIDTH 7 0
BBX 11 9 -5 -2
BITMAP
03E0
0660
04C0
0FA0
1B40
2400
6000
C000
8000
ENDCHAR
STARTCHAR 0071
ENCODING 113
SWIDTH 420 0
DWIDTH 7 0
BBX 8 12 -2 -5
BITMAP
1D
32
24
4D
7E
10
30
30
60
A0
A0
C0
ENDCHAR
STARTCHAR 0072
ENCODING 114
SWIDTH 300 0
DWIDTH 5 0
BBX 4 8 0 0
BITMAP
20
20
60
20
60
50
A0
C0
ENDCHAR
STARTCHAR 0073
ENCODING 115
SWIDTH 180 0
DWIDTH 3 0
BBX 7 7 -4 0
BITMAP
0E
0C
08
0E
08
70
E0
ENDCHAR
STARTCHAR 0074
ENCODING 116
SWIDTH 240 0
DWIDTH 4 0
BBX 9 8 -1 3
BITMAP
0C00
7B80
1000
2000
4000
4800
B000
C000
ENDCHAR
STARTCHAR 0075
ENCODING 117
SWIDTH 420 0
DWIDTH 7 0
BBX 8 6 -1 2
BITMAP
12
22
64
49
B2
DC
ENDCHAR
STARTCHAR 0076
ENCODING 118
SWIDTH 420 0
DWIDTH 7 0
BBX 7 7 -1 2
BITMAP
02
36
24
44
8C
92
E0
ENDCHAR
STARTCHAR 0077
ENCODING 119
SWIDTH 600 0
DWIDTH 10 0
BBX 10 7 -1 1
BITMAP
0040
26C0
2480
4880
9980
B240
DC00
ENDCHAR
STARTCHAR 0078
ENCODING 120
SWIDTH 360 0
DWIDTH 6 0
BBX 6 5 0 3
BITMAP
70
98
10
2C
70
ENDCHAR
STARTCHAR 0079
ENCODING 121
SWIDTH 360 0
DWIDTH 6 0
BBX 14 14 -8 -6
BITMAP
0024
004C
0098
0130
01EC
0030
01C0
0EC0
1080
2100
4200
8400
4800
3000
ENDCHAR
STARTCHAR 007A
ENCODING 122
SWIDTH 480 0
DWIDTH 8 0
BBX 12 12 -5 -4
BITMAP
03C0
0440
0180
00B0
00C0
0180
0F80
3100
4200
8600
8800
F000
ENDCHAR
STARTCHAR 007B
ENCODING 123
SWIDTH 900 0
DWIDTH 15 0
BBX 10 13 2 -2
BITMAP
00C0
0100
0200
0400
0800
3000
1000
2000
2000
4000
8000
8000
8000
ENDCHAR
STARTCHAR 007C
ENCODING 124
SWIDTH 540 0
DWIDTH 9 0
BBX 5 16 2 -1
BITMAP
08
08
08
10
10
10
20
20
20
40
40
40
80
80
80
80
ENDCHAR
STARTCHAR 007D
ENCODING 125
SWIDTH 900 0
DWIDTH 15 0
BBX 10 13 3 -2
BITMAP
0040
0040
0080
0100
0100
0200
0200
0500
0800
1000
1000
2000
C000
ENDCHAR
STARTCHAR 007E
ENCODING 126
SWIDTH 720 0
DWIDTH 12 0
BBX 8 2 2 4
BITMAP
78
8F
ENDCHAR
STARTCHAR 00A3
ENCODING 163
SWIDTH 900 0
DWIDTH 15 0
BBX 10 11 3 0
BITMAP
03C0
0240
0440
0800
0800
3C00
1200
1000
E000
5800
8700
ENDCHAR
STARTCHAR 00A5
ENCODING 165
SWIDTH 780 0
DWIDTH 13 0
BBX 9 10 2 -1
BITMAP
0980
1300
2600
2C00
7C00
0800
3000
2000
4000
8000
ENDCHAR
STARTCHAR 00A6
ENCODING 166
SWIDTH 480 0
DWIDTH 8 0
BBX 4 14 2 -2
BITMAP
10
10
10
20
20
20
00
00
40
40
80
80
80
80
ENDCHAR
STARTCHAR 00A7
ENCODING 167
SWIDTH 720 0
DWIDTH 12 0
BBX 10 12 1 -1
BITMAP
0040
0080
0780
0500
0900
0900
0900
0900
1A00
7400
9800
6000
ENDCHAR
STARTCHAR 00A8
ENCODING 168
SWIDTH 480 0
DWIDTH 8 0
BBX 4 1 2 12
BITMAP
B0
ENDCHAR
STARTCHAR 00AB
ENCODING 171
SWIDTH 720 0
DWIDTH 12 0
BBX 7 6 2 2
BITMAP
0A
3C
F0
A0
50
28
ENDCHAR
STARTCHAR 00AC
ENCODING 172
SWIDTH 540 0
DWIDTH 9 0
BBX 4 2 3 6
BITMAP
30
D0
ENDCHAR
STARTCHAR 00B0
ENCODING 176
SWIDTH 360 0
DWIDTH 6 0
BBX 2 2 2 9
BITMAP
C0
C0
ENDCHAR
STARTCHAR 00B1
ENCODING 177
SWIDTH 600 0
DWIDTH 10 0
BBX 4 6 3 3
BITMAP
20
C0
30
40
00
E0
ENDCHAR
STARTCHAR 00B4
ENCODING 180
SWIDTH 300 0
DWIDTH 5 0
BBX 1 1 2 13
BITMAP
80
ENDCHAR
STARTCHAR 00B5
ENCODING 181
SWIDTH 840 0
DWIDTH 14 0
BBX 10 10 2 0
BITMAP
0440
0840
1080
1100
2100
2200
4C00
7500
8200
8000
ENDCHAR
STARTCHAR 00B6
ENCODING 182
SWIDTH 780 0
DWIDTH 13 0
BBX 8 9 2 1
BITMAP
7F
FC
F8
F8
30
50
60
C0
C0
ENDCHAR
STARTCHAR 00B7
ENCODING 183
SWIDTH 300 0
DWIDTH 5 0
BBX 1 1 2 6
BITMAP
80
ENDCHAR
STARTCHAR 00B8
ENCODING 184
SWIDTH 420 0
DWIDTH 7 0
BBX 4 4 1 -6
BITMAP
10
20
90
60
ENDCHAR
STARTCHAR 00BB
ENCODING 187
SWIDTH 720 0
DWIDTH 12 0
BBX 7 8 3 1
BITMAP
40
28
14
14
0A
34
D8
60
ENDCHAR
STARTCHAR 00BF
ENCODING 191
SWIDTH 780 0
DWIDTH 13 0
BBX 10 14 2 -2
BITMAP
0040
0000
0000
0080
0100
0200
0400
1800
2000
4000
8400
8400
8800
F000
ENDCHAR
STARTCHAR 00C0
ENCODING 192
SWIDTH 900 0
DWIDTH 15 0
BBX 16 18 0 -3
BITMAP
0004
0002
0000
000F
0036
004C
0188
0218
0410
0C20
1860
30C0
2140
4240
4482
8884
B098
4060
ENDCHAR
STARTCHAR 00C1
ENCODING 193
SWIDTH 900 0
DWIDTH 15 0
BBX 16 18 0 -3
BITMAP
0008
0010
0000
000F
0036
004C
0188
0218
0410
0C20
1860
30C0
2140
4240
4482
8884
B098
4060
ENDCHAR
STARTCHAR 00C2
ENCODING 194
SWIDTH 900 0
DWIDTH 15 0
BBX 16 18 0 -3
BITMAP
0002
000E
0000
000F
0036
004C
0188
0218
0410
0C20
1860
30C0
2140
4240
4482
8884
B098
4060
ENDCHAR
STARTCHAR 00C3
ENCODING 195
SWIDTH 900 0
DWIDTH 15 0
BBX 17 18 0 -3
BITMAP
000E80
000100
000000
000F00
003600
004C00
018800
021800
041000
0C2000
186000
30C000
214000
424000
448200
888400
B09800
406000
ENDCHAR
STARTCHAR 00C4
ENCODING 196
SWIDTH 900 0
DWIDTH 15 0
BBX 17 18 0 -3
BITMAP
000480
000000
000000
000F00
003600
004C00
018800
021800
041000
0C2000
186000
30C000
214000
424000
448200
888400
B09800
406000
ENDCHAR
STARTCHAR 00C5
ENCODING 197
SWIDTH 900 0
DWIDTH 15 0
BBX 16 18 0 -3
BITMAP
0006
0006
0000
000F
0036
004C
0188
0218
0410
0C20
1860
30C0
2140
4240
4482
8884
B098
4060
ENDCHAR
STARTCHAR 00C6
ENCODING 198
SWIDTH 1800 0
DWIDTH 30 0
BBX 29 16 4 -3
BITMAP
00000040
000F03B8
00360608
004CF9F0
018F1000
02181000
04100F00
0C301000
18606040
1060C080
21C18100
62430600
44420800
88863000
B09C4000
40638000
ENDCHAR
STARTCHAR 00C7
ENCODING 199
SWIDTH 900 0
DWIDTH 15 0
BBX 16 18 0 -4
BITMAP
000F
0011
1C22
635C
80A0
0180
0300
0202
0604
0408
0810
0820
0840
0980
0E00
0800
2800
1000
ENDCHAR
STARTCHAR 00C8
ENCODING 200
SWIDTH 840 0
DWIDTH 14 0
BBX 16 18 1 -3
BITMAP
0004
0000
000C
0073
00C1
0FBE
7100
8200
0120
01C0
0600
0818
1020
3040
2180
4200
4C00
3000
ENDCHAR
STARTCHAR 00C9
ENCODING 201
SWIDTH 840 0
DWIDTH 14 0
BBX 16 18 1 -3
BITMAP
0008
0000
000C
0073
00C1
0FBE
7100
8200
0120
01C0
0600
0818
1020
3040
2180
4200
4C00
3000
ENDCHAR
STARTCHAR 00CA
ENCODING 202
SWIDTH 840 0
DWIDTH 14 0
BBX 16 18 1 -3
BITMAP
0006
0002
000C
0073
00C1
0FBE
7100
8200
0120
01C0
0600
0818
1020
3040
2180
4200
4C00
3000
ENDCHAR
STARTCHAR 00CB
ENCODING 203
SWIDTH 840 0
DWIDTH 14 0
BBX 16 18 1 -3
BITMAP
001A
0000
000C
0073
00C1
0FBE
7100
8200
0120
01C0
0600
0818
1020
3040
2180
4200
4C00
3000
ENDCHAR
STARTCHAR 00CC
ENCODING 204
SWIDTH 720 0
DWIDTH 12 0
BBX 12 18 0 -3
BITMAP
0010
0000
0000
0070
0190
0230
0420
0460
0A40
0480
0080
0100
0200
4600
8C00
9800
A000
4000
ENDCHAR
STARTCHAR 00CD
ENCODING 205
SWIDTH 720 0
DWIDTH 12 0
BBX 12 18 0 -3
BITMAP
0010
0000
0000
0070
0190
0230
0420
0460
0A40
0480
0080
0100
0200
4600
8C00
9800
A000
4000
ENDCHAR
STARTCHAR 00CE
ENCODING 206
SWIDTH 720 0
DWIDTH 12 0
BBX 13 18 0 -3
BITMAP
0008
0018
0000
0070
0190
0230
0420
0460
0A40
0480
0080
0100
0200
4600
8C00
9800
A000
4000
ENDCHAR
STARTCHAR 00CF
ENCODING 207
SWIDTH 720 0
DWIDTH 12 0
BBX 13 18 0 -3
BITMAP
0068
0008
0000
0070
0190
0230
0420
0460
0A40
0480
0080
0100
0200
4600
8C00
9800
A000
4000
ENDCHAR
STARTCHAR 00D0
ENCODING 208
SWIDTH 960 0
DWIDTH 16 0
BBX 15 17 1 -2
BITMAP
0038
00D0
01FE
3F62
4282
8702
8502
0E46
0D84
1E0C
1C08
1810
1030
3060
2080
6300
1C00
ENDCHAR
STARTCHAR 00D1
ENCODING 209
SWIDTH 1020 0
DWIDTH 17 0
BBX 16 17 1 -3
BITMAP
00E8
0010
0707
1909
2213
4222
4446
8C8C
0908
1A18
1410
3830
6060
6040
C040
8088
0070
ENDCHAR
STARTCHAR 00D2
ENCODING 210
SWIDTH 1020 0
DWIDTH 17 0
BBX 15 17 1 -2
BITMAP
0004
0000
0000
000E
0032
0044
0088
0112
0362
0684
0C04
3C08
C810
8820
0840
1080
1F00
ENDCHAR
STARTCHAR 00D3
ENCODING 211
SWIDTH 1020 0
DWIDTH 17 0
BBX 15 17 1 -2
BITMAP
0004
0000
0000
000E
0032
0044
0088
0112
0362
0684
0C04
3C08
C810
8820
0840
1080
1F00
ENDCHAR
STARTCHAR 00D4
ENCODING 212
SWIDTH 1020 0
DWIDTH 17 0
BBX 16 17 1 -2
BITMAP
0002
0001
0000
000E
0032
0044
0088
0112
0362
0684
0C04
3C08
C810
8820
0840
1080
1F00
ENDCHAR
STARTCHAR 00D5
ENCODING 213
SWIDTH 1020 0
DWIDTH 17 0
BBX 16 16 1 -2
BITMAP
000D
0002
000E
0032
0044
0088
0112
0362
0684
0C04
3C08
C810
8820
0840
1080
1F00
ENDCHAR
STARTCHAR 00D6
ENCODING 214
SWIDTH 1020 0
DWIDTH 17 0
BBX 16 16 1 -1
BITMAP
0009
0000
000E
0032
0044
0088
0112
0362
0684
0C04
3C08
C810
8820
0840
1080
1F00
ENDCHAR
STARTCHAR 00D8
ENCODING 216
SWIDTH 1020 0
DWIDTH 17 0
BBX 15 17 1 -3
BITMAP
0002
0004
000A
003A
0054
00A8
0152
0362
0684
0D04
3E08
CA10
0C20
0840
1080
1100
2E00
ENDCHAR
STARTCHAR 00D9
ENCODING 217
SWIDTH 1020 0
DWIDTH 17 0
BBX 16 18 1 -4
BITMAP
0020
0010
0000
0F01
1102
2202
4206
840C
8418
0818
1870
10B0
3120
2220
4440
4850
B020
4000
ENDCHAR
STARTCHAR 00DA
ENCODING 218
SWIDTH 1020 0
DWIDTH 17 0
BBX 16 18 1 -3
BITMAP
0010
0010
0000
0F01
1102
2202
4206
840C
8418
0818
1870
10B0
3120
2220
4440
4850
B020
4000
ENDCHAR
STARTCHAR 00DB
ENCODING 219
SWIDTH 1020 0
DWIDTH 17 0
BBX 16 17 1 -3
BITMAP
0010
0000
0F01
1102
2202
4206
840C
8418
0818
1870
10B0
3120
2220
4440
4850
B020
4000
ENDCHAR
STARTCHAR 00DC
ENCODING 220
SWIDTH 1020 0
DWIDTH 17 0
BBX 16 17 1 -3
BITMAP
0068
0000
0F01
1102
2202
4206
840C
8418
0818
1870
10B0
3120
2220
4440
4850
B020
4000
ENDCHAR
STARTCHAR 00DD
ENCODING 221
SWIDTH 900 0
DWIDTH 15 0
BBX 16 19 0 -4
BITMAP
0008
0010
0000
03C1
0422
004E
0054
0094
01EC
0198
0310
003E
0060
07E0
18C0
6180
8300
8C00
7000
ENDCHAR
STARTCHAR 00E0
ENCODING 224
SWIDTH 420 0
DWIDTH 7 0
BBX 7 9 -1 1
BITMAP
04
02
00
3A
64
48
9A
F4
38
ENDCHAR
STARTCHAR 00E1
ENCODING 225
SWIDTH 420 0
DWIDTH 7 0
BBX 7 9 -1 1
BITMAP
02
00
00
3A
64
48
9A
F4
38
ENDCHAR
STARTCHAR 00E2
ENCODING 226
SWIDTH 420 0
DWIDTH 7 0
BBX 8 9 -1 1
BITMAP
04
02
1A
26
44
49
92
F4
38
ENDCHAR
STARTCHAR 00E3
ENCODING 227
SWIDTH 420 0
DWIDTH 7 0
BBX 8 8 -1 1
BITMAP
1D
02
3A
64
48
9A
F4
38
ENDCHAR
STARTCHAR 00E4
ENCODING 228
SWIDTH 420 0
DWIDTH 7 0
BBX 8 9 -1 1
BITMAP
09
0B
00
3A
64
48
9A
F4
38
ENDCHAR
STARTCHAR 00E5
ENCODING 229
SWIDTH 420 0
DWIDTH 7 0
BBX 7 9 -1 1
BITMAP
06
06
00
3A
64
48
9A
F4
38
ENDCHAR
STARTCHAR 00E6
ENCODING 230
SWIDTH 480 0
DWIDTH 8 0
BBX 9 6 -1 1
BITMAP
3F00
6E00
4880
9100
F600
0800
ENDCHAR
STARTCHAR 00E7
ENCODING 231
SWIDTH 300 0
DWIDTH 5 0
BBX 7 7 -2 0
BITMAP
1C
38
22
4C
50
A0
80
ENDCHAR
STARTCHAR 00E8
ENCODING 232
SWIDTH 300 0
DWIDTH 5 0
BBX 6 8 -1 2
BITMAP
08
00
00
38
70
44
98
E0
ENDCHAR
STARTCHAR 00E9
ENCODING 233
SWIDTH 300 0
DWIDTH 5 0
BBX 6 8 -1 2
BITMAP
08
08
00
38
70
44
98
E0
ENDCHAR
STARTCHAR 00EA
ENCODING 234
SWIDTH 300 0
DWIDTH 5 0
BBX 6 7 -1 2
BITMAP
18
00
38
70
44
98
E0
ENDCHAR
STARTCHAR 00EB
ENCODING 235
SWIDTH 300 0
DWIDTH 5 0
BBX 6 7 -1 2
BITMAP
28
00
38
70
44
98
E0
ENDCHAR
STARTCHAR 00EC
ENCODING 236
SWIDTH 180 0
DWIDTH 3 0
BBX 4 7 -1 3
BITMAP
10
00
20
60
40
B0
C0
ENDCHAR
STARTCHAR 00ED
ENCODING 237
SWIDTH 180 0
DWIDTH 3 0
BBX 4 8 -1 2
BITMAP
10
10
00
30
60
40
B0
C0
ENDCHAR
STARTCHAR 00EE
ENCODING 238
SWIDTH 180 0
DWIDTH 3 0
BBX 4 5 -1 4
BITMAP
30
60
40
B0
C0
ENDCHAR
STARTCHAR 00EF
ENCODING 239
SWIDTH 180 0
DWIDTH 3 0
BBX 5 7 -1 2
BITMAP
28
00
30
60
40
B0
C0
ENDCHAR
STARTCHAR 00F1
ENCODING 241
SWIDTH 420 0
DWIDTH 7 0
BBX 9 7 -2 2
BITMAP
0600
0000
1700
3900
3200
4580
8E00
ENDCHAR
STARTCHAR 00F2
ENCODING 242
SWIDTH 360 0
DWIDTH 6 0
BBX 6 9 -1 1
BITMAP
08
00
00
38
58
48
94
A8
40
ENDCHAR
STARTCHAR 00F3
ENCODING 243
SWIDTH 360 0
DWIDTH 6 0
BBX 6 9 -1 1
BITMAP
08
00
00
38
58
48
94
A8
40
ENDCHAR
STARTCHAR 00F4
ENCODING 244
SWIDTH 360 0
DWIDTH 6 0
BBX 6 9 -1 1
BITMAP
08
00
00
38
58
48
94
A8
40
ENDCHAR
STARTCHAR 00F5
ENCODING 245
SWIDTH 360 0
DWIDTH 6 0
BBX 6 8 -1 1
BITMAP
30
00
38
58
48
94
A8
40
ENDCHAR
STARTCHAR 00F6
ENCODING 246
SWIDTH 360 0
DWIDTH 6 0
BBX 6 8 -1 1
BITMAP
14
00
38
58
48
94
A8
40
ENDCHAR
STARTCHAR 00F8
ENCODING 248
SWIDTH 360 0
DWIDTH 6 0
BBX 8 12 -2 -1
BITMAP
01
02
02
04
1C
2C
34
6A
34
40
80
80
ENDCHAR
STARTCHAR 00F9
ENCODING 249
SWIDTH 420 0
DWIDTH 7 0
BBX 8 8 -1 2
BITMAP
08
04
12
22
64
49
B2
DC
ENDCHAR
STARTCHAR 00FA
ENCODING 250
SWIDTH 420 0
DWIDTH 7 0
BBX 8 8 -1 2
BITMAP
04
00
12
22
64
49
B2
DC
ENDCHAR
STARTCHAR 00FB
ENCODING 251
SWIDTH 420 0
DWIDTH 7 0
BBX 8 8 -1 3
BITMAP
0E
00
12
22
64
49
B2
DC
ENDCHAR
STARTCHAR 00FC
ENCODING 252
SWIDTH 420 0
DWIDTH 7 0
BBX 8 8 -1 2
BITMAP
0B
00
00
32
64
49
B2
DC
ENDCHAR
STARTCHAR 00FD
ENCODING 253
SWIDTH 360 0
DWIDTH 6 0
BBX 14 16 -8 -6
BITMAP
0008
0000
0004
004C
0098
0130
01EC
0030
01C0
0EC0
1080
2100
4200
8400
4800
3000
ENDCHAR
STARTCHAR 00FF
ENCODING 255
SWIDTH 360 0
DWIDTH 6 0
BBX 14 16 -8 -6
BITMAP
0014
0000
0024
004C
0098
0130
01EC
0030
01C0
0EC0
1080
2100
4200
8400
4800
3000
ENDCHAR
STARTCHAR 0131
ENCODING 305
SWIDTH 180 0
DWIDTH 3 0
BBX 4 5 -1 2
BITMAP
30
60
40
B0
C0
ENDCHAR
STARTCHAR 0141
ENCODING 321
SWIDTH 960 0
DWIDTH 16 0
BBX 18 15 0 -3
BITMAP
0003C0
000440
000880
001100
003200
102C00
11F000
0FC000
00C000
00C000
008000
7F8000
814000
463040
380F80
ENDCHAR
STARTCHAR 0142
ENCODING 322
SWIDTH 360 0
DWIDTH 6 0
BBX 11 12 -1 0
BITMAP
00E0
0320
0440
0880
1300
2C00
7000
4200
8400
9800
A000
4000
ENDCHAR
STARTCHAR 0152
ENCODING 338
SWIDTH 1320 0
DWIDTH 22 0
BBX 16 17 4 -2
BITMAP
00F0
0124
063B
0CC1
19BE
1700
3A00
61F0
4100
C600
8C18
9020
B040
A080
4300
4C00
3000
ENDCHAR
STARTCHAR 017D
ENCODING 381
SWIDTH 1020 0
DWIDTH 17 0
BBX 18 17 0 -2
BITMAP
000200
000000
001F00
006100
008100
010100
0003C0
000600
001C00
00F800
003800
006000
07DC00
398000
C60000
980000
600000
ENDCHAR
STARTCHAR 017E
ENCODING 382
SWIDTH 480 0
DWIDTH 8 0
BBX 12 15 -5 -5
BITMAP
0060
0000
0000
03C0
0440
0180
00B0
00C0
0180
0F80
3100
4200
8600
8800
F000
ENDCHAR
STARTCHAR 02C6
ENCODING 710
SWIDTH 360 0
DWIDTH 6 0
BBX 1 1 3 13
BITMAP
80
ENDCHAR
STARTCHAR 02C7
ENCODING 711
SWIDTH 360 0
DWIDTH 6 0
BBX 1 1 2 14
BITMAP
80
ENDCHAR
STARTCHAR 02D8
ENCODING 728
SWIDTH 540 0
DWIDTH 9 0
BBX 5 3 1 11
BITMAP
80
88
70
ENDCHAR
STARTCHAR 02D9
ENCODING 729
SWIDTH 300 0
DWIDTH 5 0
BBX 1 1 2 13
BITMAP
80
ENDCHAR
STARTCHAR 02DA
ENCODING 730
SWIDTH 300 0
DWIDTH 5 0
BBX 1 1 2 13
BITMAP
80
ENDCHAR
STARTCHAR 02DB
ENCODING 731
SWIDTH 420 0
DWIDTH 7 0
BBX 4 4 1 -6
BITMAP
10
20
90
60
ENDCHAR
STARTCHAR 02DC
ENCODING 732
SWIDTH 420 0
DWIDTH 7 0
BBX 3 1 2 9
BITMAP
E0
ENDCHAR
STARTCHAR 02DD
ENCODING 733
SWIDTH 360 0
DWIDTH 6 0
BBX 3 3 2 13
BITMAP
80
20
40
ENDCHAR
STARTCHAR 2013
ENCODING 8211
SWIDTH 420 0
DWIDTH 7 0
BBX 2 1 3 5
BITMAP
C0
ENDCHAR
STARTCHAR 2014
ENCODING 8212
SWIDTH 540 0
DWIDTH 9 0
BBX 4 1 3 5
BITMAP
F0
ENDCHAR
STARTCHAR 2018
ENCODING 8216
SWIDTH 360 0
DWIDTH 6 0
BBX 1 2 2 13
BITMAP
80
80
ENDCHAR
STARTCHAR 2019
ENCODING 8217
SWIDTH 360 0
DWIDTH 6 0
BBX 2 2 2 12
BITMAP
40
80
ENDCHAR
STARTCHAR 201A
ENCODING 8218
SWIDTH 360 0
DWIDTH 6 0
BBX 1 2 3 0
BITMAP
80
80
ENDCHAR
STARTCHAR 201C
ENCODING 8220
SWIDTH 480 0
DWIDTH 8 0
BBX 4 3 2 12
BITMAP
10
A0
A0
ENDCHAR
STARTCHAR 201D
ENCODING 8221
SWIDTH 480 0
DWIDTH 8 0
BBX 4 2 2 12
BITMAP
70
A0
ENDCHAR
STARTCHAR 201E
ENCODING 8222
SWIDTH 420 0
DWIDTH 7 0
BBX 4 2 2 0
BITMAP
70
A0
ENDCHAR
STARTCHAR 2026
ENCODING 8230
SWIDTH 600 0
DWIDTH 10 0
BBX 7 1 2 -1
BITMAP
B6
ENDCHAR
STARTCHAR 2039
ENCODING 8249
SWIDTH 600 0
DWIDTH 10 0
BBX 5 7 2 1
BITMAP
08
30
C0
80
40
40
20
ENDCHAR
STARTCHAR 203A
ENCODING 8250
SWIDTH 600 0
DWIDTH 10 0
BBX 6 7 2 1
BITMAP
20
10
08
04
18
20
C0
ENDCHAR
STARTCHAR 2044
ENCODING 8260
SWIDTH 180 0
DWIDTH 3 0
BBX 11 13 -4 2
BITMAP
0020
0040
00C0
0080
0100
0200
0400
0800
0800
1000
2000
4000
8000
ENDCHAR
STARTCHAR 20AC
ENCODING 8364
SWIDTH 780 0
DWIDTH 13 0
BBX 9 12 2 -1
BITMAP
0100
0680
0800
1000
2000
5000
4000
A000
8000
8000
8000
7000
ENDCHAR
STARTCHAR 2212
ENCODING 8722
SWIDTH 540 0
DWIDTH 9 0
BBX 3 1 3 5
BITMAP
E0
ENDCHAR
STARTCHAR E000
ENCODING 57344
SWIDTH 420 0
DWIDTH 7 0
BBX 27 9 -21 1
BITMAP
00F00000
00900000
00900000
00600FA0
FE5FF640
01800480
000009A0
00000F40
00000380
ENDCHAR
STARTCHAR E001
ENCODING 57345
SWIDTH 480 0
DWIDTH 8 0
BBX 30 12 -21 1
BITMAP
0000000C
00000034
00000068
000000D0
000001A0
01E001C0
012003E0
00C00D20
FCBFFE48
030008D0
00001FA0
00000E00
ENDCHAR
STARTCHAR E002
ENCODING 57346
SWIDTH 300 0
DWIDTH 5 0
BBX 25 8 -21 2
BITMAP
00F00000
00900000
00900000
00701F80
FE4FE600
01800400
00000980
00000E00
ENDCHAR
STARTCHAR E003
ENCODING 57347
SWIDTH 540 0
DWIDTH 9 0
BBX 33 13 -21 0
BITMAP
0000000380
0000000480
0000000900
00F0001900
0090003200
0090002C00
00601FF000
FFDFE66000
0000048400
00000B8800
00000D1000
0000012000
000001C000
ENDCHAR
STARTCHAR E004
ENCODING 57348
SWIDTH 300 0
DWIDTH 5 0
BBX 26 8 -21 2
BITMAP
00F00000
00900000
00900000
00601F80
FE5FE600
01800440
00000980
00000E00
ENDCHAR
STARTCHAR E005
ENCODING 57349
SWIDTH 300 0
DWIDTH 5 0
BBX 31 13 -23 -1
BITMAP
0000000E
00000014
00000024
00000048
00F000F0
009001C0
00700710
7E6FFA60
81800380
00000600
00000A00
00000A00
00000C00
ENDCHAR
STARTCHAR E006
ENCODING 57350
SWIDTH 420 0
DWIDTH 7 0
BBX 27 15 -21 -5
BITMAP
00F00000
00900000
00900000
00600FA0
FFDFF640
00000480
000009E0
00000F00
00000A00
00007600
00018C00
00020800
00021000
00026000
00018000
ENDCHAR
STARTCHAR E007
ENCODING 57351
SWIDTH 480 0
DWIDTH 8 0
BBX 30 11 -21 2
BITMAP
0000000C
00000034
00000068
000000D0
000001A0
03E00140
012003A0
00C00F20
F8BFFC40
070008B0
000011C0
ENDCHAR
STARTCHAR E008
ENCODING 57352
SWIDTH 180 0
DWIDTH 3 0
BBX 25 7 -21 2
BITMAP
01E00180
01200000
00C00700
F8BFFE00
07000400
00000B00
00001C00
ENDCHAR
STARTCHAR E009
ENCODING 57353
SWIDTH 180 0
DWIDTH 3 0
BBX 26 15 -22 -5
BITMAP
00F00000
00900040
00900000
00600700
7E5FFB00
81800200
00000580
00000E00
00003800
0001D000
00062000
00084000
00108000
00110000
000E0000
ENDCHAR
STARTCHAR E00A
ENCODING 57354
SWIDTH 420 0
DWIDTH 7 0
BBX 32 12 -23 1
BITMAP
00000003
0000000D
0000001A
00000034
00000028
00F00050
009000AC
005001F0
00301FE0
7E6FE348
81800690
000000E0
ENDCHAR
STARTCHAR E00B
ENCODING 57355
SWIDTH 360 0
DWIDTH 6 0
BBX 33 12 -23 0
BITMAP
0000000380
0000000D00
0000001100
0000002200
00F0004C00
009000B000
009001C000
00701F0800
FE4FE21000
0180026000
0000028000
0000010000
ENDCHAR
STARTCHAR E00C
ENCODING 57356
SWIDTH 660 0
DWIDTH 11 0
BBX 32 8 -22 2
BITMAP
00F00000
00900000
00900000
00600F7E
FE5FF3B2
81800264
000004CF
0000098C
ENDCHAR
STARTCHAR E00D
ENCODING 57357
SWIDTH 420 0
DWIDTH 7 0
BBX 29 8 -22 2
BITMAP
00F00000
00900000
00900000
00601F70
FE5FE290
01800320
00000458
000008E0
ENDCHAR
STARTCHAR E00E
ENCODING 57358
SWIDTH 360 0
DWIDTH 6 0
BBX 26 9 -21 1
BITMAP
00F00000
00900000
00A00000
00601F80
FE5FE680
01800580
00000940
00000A80
00000400
ENDCHAR
STARTCHAR E00F
ENCODING 57359
SWIDTH 420 0
DWIDTH 7 0
BBX 27 12 -21 -3
BITMAP
01E00000
01200000
01200000
00C03FE0
FFBFC660
00000440
00000FA0
00001B40
00002400
00006000
0000C000
00008000
ENDCHAR
STARTCHAR E010
ENCODING 57360
SWIDTH 420 0
DWIDTH 7 0
BBX 27 15 -21 -6
BITMAP
00F00000
00900000
00900000
00601FA0
FE5FE640
81800480
00000920
00000FC0
00000200
00000600
00000600
00000C00
00000C00
00001400
00001800
ENDCHAR
STARTCHAR E011
ENCODING 57361
SWIDTH 300 0
DWIDTH 5 0
BBX 24 9 -20 0
BITMAP
03E000
012002
00C00E
F8BFF2
070002
000004
000005
00000A
00000C
ENDCHAR
STARTCHAR E012
ENCODING 57362
SWIDTH 180 0
DWIDTH 3 0
BBX 25 7 -22 0
BITMAP
01E00380
01200300
00C00E00
F8BFF380
07000200
00001C00
00003800
ENDCHAR
STARTCHAR E013
ENCODING 57363
SWIDTH 240 0
DWIDTH 4 0
BBX 32 9 -24 2
BITMAP
01E00000
01200011
00A003FE
FC503C20
038FC040
00000080
00000090
00000160
00000180
ENDCHAR
STARTCHAR E014
ENCODING 57364
SWIDTH 420 0
DWIDTH 7 0
BBX 28 8 -21 2
BITMAP
01E00000
01200000
00A00000
00601F20
FCDFE640
03000490
00000B20
00001DC0
ENDCHAR
STARTCHAR E015
ENCODING 57365
SWIDTH 420 0
DWIDTH 7 0
BBX 28 8 -22 2
BITMAP
00F00000
00900010
00600790
7C5FF920
83800220
000004F0
00000500
00000600
ENDCHAR
STARTCHAR E016
ENCODING 57366
SWIDTH 600 0
DWIDTH 10 0
BBX 30 8 -21 1
BITMAP
03E00000
01200004
00C00E6C
FCBFF2C8
03000488
00000B98
00000B24
00000DC0
ENDCHAR
STARTCHAR E017
ENCODING 57367
SWIDTH 360 0
DWIDTH 6 0
BBX 27 8 -21 2
BITMAP
00F00000
00900000
00900000
00600F80
FE5FF0C0
01800100
00000160
00000380
ENDCHAR
STARTCHAR E018
ENCODING 57368
SWIDTH 360 0
DWIDTH 6 0
BBX 27 16 -21 -6
BITMAP
01E00000
01200000
00A00000
00603E60
FCDFC4C0
03000980
00000FE0
00000100
00000E00
00007600
00008400
00010800
00021000
00042000
00024000
00018000
ENDCHAR
STARTCHAR E019
ENCODING 57369
SWIDTH 480 0
DWIDTH 8 0
BBX 27 15 -20 -5
BITMAP
01E00000
01200000
00A00000
00601F80
FFDFE080
00000100
00000620
00000140
00000180
00000F00
00003200
0000C600
00010C00
00011800
0001E000
ENDCHAR
STARTCHAR E01A
ENCODING 57370
SWIDTH 420 0
DWIDTH 7 0
BBX 27 9 -1 1
BITMAP
0001E000
00012000
00012000
1A00C000
247FC7E0
4D803800
9A000000
F4000000
38000000
ENDCHAR
STARTCHAR E01B
ENCODING 57371
SWIDTH 480 0
DWIDTH 8 0
BBX 29 12 -2 1
BITMAP
00600000
01A00000
02400000
06807800
0D004800
0E005000
1F1FA0F0
29601F08
72800000
47000000
BC000000
70000000
ENDCHAR
STARTCHAR E01C
ENCODING 57372
SWIDTH 300 0
DWIDTH 5 0
BBX 25 7 -1 2
BITMAP
00078000
00048000
18050000
2BFB0F00
4400F080
88000000
F0000000
ENDCHAR
STARTCHAR E01D
ENCODING 57373
SWIDTH 540 0
DWIDTH 9 0
BBX 28 13 -1 0
BITMAP
00380000
00480000
00900000
01107800
03204800
1AC05000
251FA1F0
46601E00
48800000
B9000000
D1000000
12000000
1C000000
ENDCHAR
STARTCHAR E01E
ENCODING 57374
SWIDTH 300 0
DWIDTH 5 0
BBX 24 8 -1 2
BITMAP
000780
000480
000500
380600
33F91F
4400E0
880000
F00000
ENDCHAR
STARTCHAR E01F
ENCODING 57375
SWIDTH 300 0
DWIDTH 5 0
BBX 27 13 -3 -1
BITMAP
00E00000
0141E000
02812000
05014000
0A7E87C0
1C807820
11000000
22000000
3C000000
60000000
A0000000
A0000000
C0000000
ENDCHAR
STARTCHAR E020
ENCODING 57376
SWIDTH 420 0
DWIDTH 7 0
BBX 32 15 -7 -5
BITMAP
00000780
00000480
00680500
0091FA1F
011601E0
01280000
02500000
03E00000
02800000
1D000000
63000000
82000000
84000000
98000000
60000000
ENDCHAR
STARTCHAR E021
ENCODING 57377
SWIDTH 480 0
DWIDTH 8 0
BBX 28 12 -2 1
BITMAP
00600000
01A00000
03400000
06807800
05004800
0A005000
1D006000
193F93F0
33400C00
62800000
45000000
8E000000
ENDCHAR
STARTCHAR E022
ENCODING 57378
SWIDTH 180 0
DWIDTH 3 0
BBX 23 8 -1 2
BITMAP
000F00
180900
000A00
300C00
27F47E
480380
B00000
C00000
ENDCHAR
STARTCHAR E023
ENCODING 57379
SWIDTH 180 0
DWIDTH 3 0
BBX 33 15 -11 -5
BITMAP
000003C000
0006024000
0000028000
0009FD0F80
001200F000
0034000000
0028000000
0070000000
01C0000000
0E80000000
3100000000
4200000000
8400000000
8800000000
7000000000
ENDCHAR
STARTCHAR E024
ENCODING 57380
SWIDTH 420 0
DWIDTH 7 0
BBX 28 12 -2 1
BITMAP
00600000
01A00000
03400000
0680F800
05009000
0A009000
1D806000
363FE3F0
2CC01C00
79000000
D2000000
1C000000
ENDCHAR
STARTCHAR E025
ENCODING 57381
SWIDTH 360 0
DWIDTH 6 0
BBX 26 12 -1 0
BITMAP
00E00000
03200000
04400000
0883C000
19024000
36018000
79FE8F80
42007040
84000000
98000000
A0000000
40000000
ENDCHAR
STARTCHAR E026
ENCODING 57382
SWIDTH 660 0
DWIDTH 11 0
BBX 31 9 -2 1
BITMAP
00000F00
00000900
00000A00
1FE00C00
1B27F47E
32680380
64500000
48A00000
81C00000
ENDCHAR
STARTCHAR E027
ENCODING 57383
SWIDTH 420 0
DWIDTH 7 0
BBX 28 8 -2 2
BITMAP
00007800
00008800
00005000
17006000
193FA3F0
33C01C00
67000000
8E000000
ENDCHAR
STARTCHAR E028
ENCODING 57384
SWIDTH 360 0
DWIDTH 6 0
BBX 27 9 -1 1
BITMAP
0003E000
00024000
18018000
28FE8780
59007860
4A000000
94000000
A8000000
40000000
ENDCHAR
STARTCHAR E029
ENCODING 57385
SWIDTH 420 0
DWIDTH 7 0
BBX 31 12 -5 -3
BITMAP
00001F00
00001200
00000A00
02E00400
0727FC7E
04580380
0FA00000
1B400000
24000000
60000000
C0000000
80000000
ENDCHAR
STARTCHAR E02A
ENCODING 57386
SWIDTH 420 0
DWIDTH 7 0
BBX 29 15 -2 -6
BITMAP
0000F000
00009000
0D006000
133FA1E0
22401E18
24800000
49000000
5E000000
30000000
30000000
30000000
60000000
A0000000
A0000000
C0000000
ENDCHAR
STARTCHAR E02B
ENCODING 57387
SWIDTH 300 0
DWIDTH 5 0
BBX 25 9 0 0
BITMAP
000F0000
00090000
20060000
E3FA1E00
2401E180
48000000
50000000
A0000000
C0000000
ENDCHAR
STARTCHAR E02C
ENCODING 57388
SWIDTH 180 0
DWIDTH 3 0
BBX 26 10 -4 0
BITMAP
0001E000
00012000
00014000
0E018000
0CFE8FC0
09007000
0A000000
0C000000
30000000
E0000000
ENDCHAR
STARTCHAR E02D
ENCODING 57389
SWIDTH 240 0
DWIDTH 4 0
BBX 24 8 -1 3
BITMAP
0C0F00
7B8900
100A00
23F41E
4403E1
480000
900000
E00000
ENDCHAR
STARTCHAR E02E
ENCODING 57390
SWIDTH 420 0
DWIDTH 7 0
BBX 28 8 -1 2
BITMAP
0001E000
00012000
00012000
3200C000
24FF47E0
49003810
BA000000
DC000000
ENDCHAR
STARTCHAR E02F
ENCODING 57391
SWIDTH 420 0
DWIDTH 7 0
BBX 26 8 -1 2
BITMAP
0001E000
02012000
36014000
247F87C0
45807800
9E000000
A0000000
C0000000
ENDCHAR
STARTCHAR E030
ENCODING 57392
SWIDTH 600 0
DWIDTH 10 0
BBX 30 8 -1 1
BITMAP
00003C00
00402400
26C02800
248FF0F8
48B00F04
B9C00000
B2000000
DC000000
ENDCHAR
STARTCHAR E031
ENCODING 57393
SWIDTH 360 0
DWIDTH 6 0
BBX 25 8 0 2
BITMAP
0003C000
00044000
00028000
74030000
99FD1F80
9200E000
24000000
78000000
ENDCHAR
STARTCHAR E032
ENCODING 57394
SWIDTH 360 0
DWIDTH 6 0
BBX 33 16 -8 -6
BITMAP
000003C000
0000048000
0000028000
0064030000
0049FD1F80
009600E000
0178000000
00A0000000
01C0000000
0EC0000000
1080000000
2100000000
4200000000
8400000000
4800000000
3000000000
ENDCHAR
STARTCHAR E033
ENCODING 57395
SWIDTH 480 0
DWIDTH 8 0
BBX 31 15 -5 -5
BITMAP
00000F00
00000900
00000A00
03C00C00
0447F27E
00880180
01B00000
00C00000
01800000
0F800000
31000000
42000000
86000000
88000000
F0000000
ENDCHAR
STARTCHAR E034
ENCODING 57396
SWIDTH 420 0
DWIDTH 7 0
BBX 19 9 -1 1
BITMAP
000020
000020
000020
3A00C0
64FF00
490000
9A0000
F40000
380000
ENDCHAR
STARTCHAR E035
ENCODING 57397
SWIDTH 480 0
DWIDTH 8 0
BBX 21 12 -2 1
BITMAP
006000
01A000
034000
068008
0D0008
0E0008
1F0030
313FC0
624000
478000
BC0000
700000
ENDCHAR
STARTCHAR E036
ENCODING 57398
SWIDTH 300 0
DWIDTH 5 0
BBX 17 8 -1 2
BITMAP
000180
000080
000100
380200
73FC00
440000
980000
E00000
ENDCHAR
STARTCHAR E037
ENCODING 57399
SWIDTH 540 0
DWIDTH 9 0
BBX 21 13 -1 0
BITMAP
003800
004800
009000
019008
012008
024010
3F8020
663FC0
484000
B88000
D10000
120000
1C0000
ENDCHAR
STARTCHAR E038
ENCODING 57400
SWIDTH 300 0
DWIDTH 5 0
BBX 17 8 -1 2
BITMAP
000180
000080
000100
380200
73FC00
440000
980000
E00000
ENDCHAR
STARTCHAR E039
ENCODING 57401
SWIDTH 300 0
DWIDTH 5 0
BBX 19 13 -3 -1
BITMAP
00E000
014060
024020
048040
0B0080
1CFF00
110000
260000
380000
600000
A00000
A00000
C00000
ENDCHAR
STARTCHAR E03A
ENCODING 57402
SWIDTH 420 0
DWIDTH 7 0
BBX 25 15 -7 -5
BITMAP
00000180
00000080
00000100
00E80200
0193FC00
01240000
02780000
03C00000
02800000
1D800000
63000000
82000000
84000000
98000000
60000000
ENDCHAR
STARTCHAR E03B
ENCODING 57403
SWIDTH 480 0
DWIDTH 8 0
BBX 21 11 -2 1
BITMAP
006000
01A000
034000
068018
050008
0A0010
1D0020
393FC0
32C000
670000
C60000
ENDCHAR
STARTCHAR E03C
ENCODING 57404
SWIDTH 180 0
DWIDTH 3 0
BBX 16 8 -1 2
BITMAP
0003
1801
0002
3004
67F8
5800
A000
C000
ENDCHAR
STARTCHAR E03D
ENCODING 57405
SWIDTH 180 0
DWIDTH 3 0
BBX 26 15 -11 -5
BITMAP
00000040
00020040
00000080
000C0100
0019FE00
00160000
00280000
00700000
00C00000
0F800000
31000000
42000000
84000000
88000000
70000000
ENDCHAR
STARTCHAR E03E
ENCODING 57406
SWIDTH 420 0
DWIDTH 7 0
BBX 21 12 -2 1
BITMAP
006000
01A000
034000
068008
050010
0F8010
1A0060
347F80
3C8000
690000
D20000
1C0000
ENDCHAR
STARTCHAR E03F
ENCODING 57407
SWIDTH 360 0
DWIDTH 6 0
BBX 18 12 -1 0
BITMAP
00E000
034000
044040
088040
130040
340180
79FE00
420000
840000
980000
A00000
400000
ENDCHAR
STARTCHAR E040
ENCODING 57408
SWIDTH 660 0
DWIDTH 11 0
BBX 24 8 -2 1
BITMAP
000003
000001
000002
17E004
3B27F8
267800
4CE000
D8C000
ENDCHAR
STARTCHAR E041
ENCODING 57409
SWIDTH 420 0
DWIDTH 7 0
BBX 21 8 -2 2
BITMAP
000008
000008
000010
170020
397FC0
328000
450000
8E0000
ENDCHAR
STARTCHAR E042
ENCODING 57410
SWIDTH 360 0
DWIDTH 6 0
BBX 19 9 -1 1
BITMAP
000020
000020
000040
380080
69FF00
5A0000
940000
A80000
400000
ENDCHAR
STARTCHAR E043
ENCODING 57411
SWIDTH 420 0
DWIDTH 7 0
BBX 24 12 -5 -3
BITMAP
000001
000001
000002
02E004
0767F8
045800
0FA000
1B4000
240000
600000
C00000
800000
ENDCHAR
STARTCHAR E044
ENCODING 57412
SWIDTH 420 0
DWIDTH 7 0
BBX 20 15 -2 -6
BITMAP
000010
000010
000010
1D0060
327F80
248000
4D0000
7E0000
100000
300000
300000
600000
A00000
A00000
C00000
ENDCHAR
STARTCHAR E045
ENCODING 57413
SWIDTH 300 0
DWIDTH 5 0
BBX 16 9 0 0
BITMAP
0001
2001
2001
6006
27F8
6800
5000
A000
C000
ENDCHAR
STARTCHAR E046
ENCODING 57414
SWIDTH 180 0
DWIDTH 3 0
BBX 19 10 -4 0
BITMAP
000020
000020
000040
0E0080
0CFF00
0B0000
0C0000
080000
700000
E00000
ENDCHAR
STARTCHAR E047
ENCODING 57415
SWIDTH 240 0
DWIDTH 4 0
BBX 16 8 -1 3
BITMAP
0C03
7B81
1002
2004
47F8
4800
B000
C000
ENDCHAR
STARTCHAR E048
ENCODING 57416
SWIDTH 420 0
DWIDTH 7 0
BBX 19 8 -1 2
BITMAP
000020
000020
000020
3200C0
64FF00
490000
B20000
DC0000
ENDCHAR
STARTCHAR E049
ENCODING 57417
SWIDTH 420 0
DWIDTH 7 0
BBX 19 8 -1 2
BITMAP
000020
020020
260040
240080
44FF00
4D0000
920000
E00000
ENDCHAR
STARTCHAR E04A
ENCODING 57418
SWIDTH 600 0
DWIDTH 10 0
BBX 22 8 -1 1
BITMAP
000004
004004
20C008
244010
489FE0
59A000
B24000
DC0000
ENDCHAR
STARTCHAR E04B
ENCODING 57419
SWIDTH 360 0
DWIDTH 6 0
BBX 17 8 1 2
BITMAP
000080
000080
000100
E00200
33FC00
2C0000
500000
E00000
ENDCHAR
STARTCHAR E04C
ENCODING 57420
SWIDTH 360 0
DWIDTH 6 0
BBX 26 16 -8 -6
BITMAP
00000040
00000040
00000080
00640100
00CBFE00
01340000
01F80000
00200000
01C00000
0EC00000
10800000
21000000
42000000
84000000
48000000
30000000
ENDCHAR
STARTCHAR E04D
ENCODING 57421
SWIDTH 480 0
DWIDTH 8 0
BBX 24 15 -5 -5
BITMAP
000003
000001
000002
03C004
0447F8
019800
00A000
00C000
018000
0F8000
310000
420000
860000
880000
F00000
ENDCHAR
STARTCHAR E04E
ENCODING 57422
SWIDTH 420 0
DWIDTH 7 0
BBX 17 9 -11 1
BITMAP
800000
800000
800000
400E80
20F900
1F1200
002680
003D00
000E00
ENDCHAR
STARTCHAR E04F
ENCODING 57423
SWIDTH 480 0
DWIDTH 8 0
BBX 20 12 -11 1
BITMAP
000030
0000D0
000120
800340
800680
800700
400F80
301C80
0FF920
0033C0
007E00
003800
ENDCHAR
STARTCHAR E050
ENCODING 57424
SWIDTH 300 0
DWIDTH 5 0
BBX 16 8 -11 2
BITMAP
8000
8000
8000
400E
20FC
1F11
0026
0038
ENDCHAR
STARTCHAR E051
ENCODING 57425
SWIDTH 540 0
DWIDTH 9 0
BBX 23 13 -11 0
BITMAP
00000E
000012
000024
000064
8000C8
800090
400FE0
207980
1F9210
002E20
003440
000480
000700
ENDCHAR
STARTCHAR E052
ENCODING 57426
SWIDTH 300 0
DWIDTH 5 0
BBX 16 8 -11 2
BITMAP
8000
8000
8000
400E
20FC
1F11
0022
003C
ENDCHAR
STARTCHAR E053
ENCODING 57427
SWIDTH 300 0
DWIDTH 5 0
BBX 19 13 -11 -1
BITMAP
0000E0
800140
800280
800480
400B00
200C00
183100
07E200
003C00
006000
00A000
00A000
00C000
ENDCHAR
STARTCHAR E054
ENCODING 57428
SWIDTH 420 0
DWIDTH 7 0
BBX 18 15 -11 -5
BITMAP
800000
800000
800000
400E80
207900
1F9240
002780
003E00
001800
00F800
073000
082000
084000
098000
060000
ENDCHAR
STARTCHAR E055
ENCODING 57429
SWIDTH 480 0
DWIDTH 8 0
BBX 20 11 -11 1
BITMAP
000030
0000D0
0001A0
800340
800280
800500
400E80
201C80
1FF900
0032C0
006300
ENDCHAR
STARTCHAR E056
ENCODING 57430
SWIDTH 180 0
DWIDTH 3 0
BBX 15 8 -11 2
BITMAP
8000
8006
8000
400C
2078
1F90
002C
0070
ENDCHAR
STARTCHAR E057
ENCODING 57431
SWIDTH 180 0
DWIDTH 3 0
BBX 15 14 -11 -4
BITMAP
8002
8000
4008
2078
1F90
002C
0070
00C0
0F80
3100
4200
8400
8800
7000
ENDCHAR
STARTCHAR E058
ENCODING 57432
SWIDTH 420 0
DWIDTH 7 0
BBX 20 12 -11 1
BITMAP
000030
0000D0
0001A0
800340
800280
800500
800EC0
601B00
1FFC00
003480
006900
000E00
ENDCHAR
STARTCHAR E059
ENCODING 57433
SWIDTH 360 0
DWIDTH 6 0
BBX 21 12 -11 0
BITMAP
000038
0000D0
800110
800660
800480
400B00
301400
0FF180
002200
002400
002800
001000
ENDCHAR
STARTCHAR E05A
ENCODING 57434
SWIDTH 660 0
DWIDTH 11 0
BBX 22 9 -11 1
BITMAP
800000
800000
800000
403BF0
20DD90
1F1B34
003628
006C70
004040
ENDCHAR
STARTCHAR E05B
ENCODING 57435
SWIDTH 420 0
DWIDTH 7 0
BBX 18 8 -11 2
BITMAP
800000
800000
800000
403B80
20DC80
1F1900
0022C0
004700
ENDCHAR
STARTCHAR E05C
ENCODING 57436
SWIDTH 360 0
DWIDTH 6 0
BBX 16 9 -11 1
BITMAP
8000
8000
8000
400E
20F6
1F12
0025
002A
0010
ENDCHAR
STARTCHAR E05D
ENCODING 57437
SWIDTH 420 0
DWIDTH 7 0
BBX 17 12 -11 -3
BITMAP
800000
800000
800000
401B80
20FC80
1F1100
003E80
006D00
009000
018000
030000
020000
ENDCHAR
STARTCHAR E05E
ENCODING 57438
SWIDTH 420 0
DWIDTH 7 0
BBX 17 15 -11 -6
BITMAP
800000
800000
800000
400E80
207900
1F9200
002680
003F00
000800
001800
001800
003000
003000
005000
006000
ENDCHAR
STARTCHAR E05F
ENCODING 57439
SWIDTH 300 0
DWIDTH 5 0
BBX 15 9 -11 0
BITMAP
8000
8004
8004
401C
20E4
1F0C
000A
0014
0018
ENDCHAR
STARTCHAR E060
ENCODING 57440
SWIDTH 180 0
DWIDTH 3 0
BBX 14 10 -11 0
BITMAP
8000
8000
8000
801C
60F8
1F10
001C
0010
00E0
01C0
ENDCHAR
STARTCHAR E061
ENCODING 57441
SWIDTH 240 0
DWIDTH 4 0
BBX 19 8 -11 3
BITMAP
800300
801EE0
800400
400800
207000
1F9200
002C00
003000
ENDCHAR
STARTCHAR E062
ENCODING 57442
SWIDTH 420 0
DWIDTH 7 0
BBX 17 8 -11 2
BITMAP
800000
800000
800000
401C80
20F900
1F1200
002C80
007700
ENDCHAR
STARTCHAR E063
ENCODING 57443
SWIDTH 420 0
DWIDTH 7 0
BBX 18 7 -11 3
BITMAP
800080
800D80
403900
30D100
0F1140
002680
003800
ENDCHAR
STARTCHAR E064
ENCODING 57444
SWIDTH 600 0
DWIDTH 10 0
BBX 21 7 -11 2
BITMAP
800010
8009B0
403920
20D220
1F2628
002CD0
003700
ENDCHAR
STARTCHAR E065
ENCODING 57445
SWIDTH 360 0
DWIDTH 6 0
BBX 17 8 -11 2
BITMAP
800000
800000
800000
400E00
207300
1F8400
000580
000E00
ENDCHAR
STARTCHAR E066
ENCODING 57446
SWIDTH 360 0
DWIDTH 6 0
BBX 17 16 -11 -6
BITMAP
800000
800000
800000
401C80
20F900
1F1200
002F80
001400
003800
01D800
021000
042000
084000
108000
090000
060000
ENDCHAR
STARTCHAR E067
ENCODING 57447
SWIDTH 480 0
DWIDTH 8 0
BBX 19 15 -11 -5
BITMAP
800000
800000
800000
400F00
207100
1F8620
0002C0
000300
000600
003E00
00C400
010800
021800
022000
03C000
ENDCHAR
STARTCHAR E068
ENCODING 57448
SWIDTH 480 0
DWIDTH 8 0
BBX 23 13 -5 0
BITMAP
000C00
3FB800
C07402
80E3FC
418000
3F0000
02E000
072000
044000
08F000
0F0000
0A0000
040000
ENDCHAR
STARTCHAR E069
ENCODING 57449
SWIDTH 540 0
DWIDTH 9 0
BBX 22 13 -2 0
BITMAP
000C00
3F9400
406A00
80F1FC
408000
3F0000
1F0000
320000
242000
5C4000
688000
090000
0E0000
ENDCHAR
STARTCHAR E06A
ENCODING 57450
SWIDTH 300 0
DWIDTH 5 0
BBX 21 13 -6 -2
BITMAP
001800
3FA800
C05400
80A3F8
41C000
3F0000
022000
04C000
0F0000
0C0000
140000
140000
180000
ENDCHAR
STARTCHAR E06B
ENCODING 57451
SWIDTH 420 0
DWIDTH 7 0
BBX 21 13 -12 -7
BITMAP
000740
000C80
000900
001300
001E00
000400
1FE800
601C00
801380
802060
80C010
430008
3C0000
ENDCHAR
STARTCHAR E06C
ENCODING 57452
SWIDTH 480 0
DWIDTH 8 0
BBX 22 10 -5 2
BITMAP
001800
7FE800
805704
80E0F8
410000
3FE000
072000
064800
0C5000
18E000
ENDCHAR
STARTCHAR E06D
ENCODING 57453
SWIDTH 180 0
DWIDTH 3 0
BBX 21 15 -16 -7
BITMAP
000010
000000
000040
0000C0
000080
000100
000300
000200
0FF400
300A00
401180
802060
404018
418000
3E0000
ENDCHAR
STARTCHAR E06E
ENCODING 57454
SWIDTH 420 0
DWIDTH 7 0
BBX 23 12 -5 1
BITMAP
000C00
3FB800
C07402
80E3FC
41C000
3F0000
033000
06C000
0F8000
0D2000
1A4000
038000
ENDCHAR
STARTCHAR E06F
ENCODING 57455
SWIDTH 360 0
DWIDTH 6 0
BBX 21 11 -6 1
BITMAP
001C00
7FE800
805700
80A0F8
414000
3F0000
021000
046000
048000
050000
020000
ENDCHAR
STARTCHAR E070
ENCODING 57456
SWIDTH 360 0
DWIDTH 6 0
BBX 21 14 -12 -7
BITMAP
000240
0004C0
000980
001300
001F00
000200
000400
1FE800
601C00
801380
802060
80C010
430008
3C0000
ENDCHAR
STARTCHAR E071
ENCODING 57457
SWIDTH 360 0
DWIDTH 6 0
BBX 21 13 -10 -6
BITMAP
001E00
002200
000400
000C00
000400
000400
1FE800
601C00
801380
802060
80C010
430008
3C0000
ENDCHAR
STARTCHAR E072
ENCODING 57458
SWIDTH 480 0
DWIDTH 8 0
BBX 16 13 -7 0
BITMAP
0003
000D
001A
0034
0078
0040
00B8
0348
0D90
123C
63E0
8280
0100
ENDCHAR
STARTCHAR E073
ENCODING 57459
SWIDTH 300 0
DWIDTH 5 0
BBX 15 13 -7 -1
BITMAP
000E
0014
0024
0048
00B0
01C0
0110
0660
1B80
2600
CA00
0A00
0C00
ENDCHAR
STARTCHAR E074
ENCODING 57460
SWIDTH 420 0
DWIDTH 7 0
BBX 28 12 -11 -6
BITMAP
000E8000
00190000
00120000
00260000
003C0000
02083FE0
7DFEC010
80334020
80443FC0
80980000
83200000
7C000000
ENDCHAR
STARTCHAR E075
ENCODING 57461
SWIDTH 480 0
DWIDTH 8 0
BBX 16 13 -7 -1
BITMAP
0003
000D
0019
0032
002C
0050
00E8
01C8
0192
0F14
1638
2420
C000
ENDCHAR
STARTCHAR E076
ENCODING 57462
SWIDTH 180 0
DWIDTH 3 0
BBX 28 14 -15 -6
BITMAP
00002000
00000000
00008000
00018000
00010000
00020000
00060000
03041FE0
3CFFE010
40117010
80260FE0
80C80000
43100000
3C000000
ENDCHAR
STARTCHAR E077
ENCODING 57463
SWIDTH 420 0
DWIDTH 7 0
BBX 16 13 -7 -1
BITMAP
0003
0005
0019
0012
002C
0050
00EC
01B0
01E0
0F48
1690
60A0
8040
ENDCHAR
STARTCHAR E078
ENCODING 57464
SWIDTH 360 0
DWIDTH 6 0
BBX 17 12 -7 -1
BITMAP
000380
000C80
001100
002200
004C00
00D000
01A000
030800
0E1000
126000
628000
810000
ENDCHAR
STARTCHAR E079
ENCODING 57465
SWIDTH 360 0
DWIDTH 6 0
BBX 28 13 -11 -6
BITMAP
00040000
00088000
00110000
00260000
003E0000
00040000
1FC83FE0
603EC010
80336020
80441FC0
80980000
83200000
7C000000
ENDCHAR
STARTCHAR E07A
ENCODING 57466
SWIDTH 480 0
DWIDTH 8 0
BBX 28 12 -9 -5
BITMAP
003C0000
00440000
00080000
00180000
00080000
02083FE0
7DFEC010
80336020
80641FC0
80880000
43100000
3C200000
ENDCHAR
STARTCHAR E07B
ENCODING 57467
SWIDTH 480 0
DWIDTH 8 0
BBX 23 12 -5 1
BITMAP
000C00
3FB800
C06C02
80F3FC
418000
3F0000
02E000
072000
044000
0CF000
1F8000
0E0000
ENDCHAR
STARTCHAR E07C
ENCODING 57468
SWIDTH 540 0
DWIDTH 9 0
BBX 22 13 -2 0
BITMAP
000C00
3F9400
406A00
80F1FC
408000
3F0000
0F0000
320000
242000
5C4000
688000
090000
0E0000
ENDCHAR
STARTCHAR E07D
ENCODING 57469
SWIDTH 300 0
DWIDTH 5 0
BBX 23 15 -5 -2
BITMAP
000C00
3FB800
C06C02
80F3FC
418000
3F0000
020000
060000
044000
098000
0E0000
180000
280000
280000
300000
ENDCHAR
STARTCHAR E07E
ENCODING 57470
SWIDTH 420 0
DWIDTH 7 0
BBX 21 12 -13 -5
BITMAP
0003A0
000640
000480
000980
000B00
000700
000600
0005F0
003808
FFD010
016820
00C7C0
ENDCHAR
STARTCHAR E07F
ENCODING 57471
SWIDTH 480 0
DWIDTH 8 0
BBX 23 12 -5 1
BITMAP
000C00
3FB800
C06C02
80F3FC
418000
3F0000
03E000
072000
064800
0C5000
18E000
008000
ENDCHAR
STARTCHAR E080
ENCODING 57472
SWIDTH 180 0
DWIDTH 3 0
BBX 21 14 -17 -5
BITMAP
000008
000000
000020
000060
000040
000080
000180
000100
000300
0006F8
003C08
FFD808
00B410
00C3E0
ENDCHAR
STARTCHAR E081
ENCODING 57473
SWIDTH 420 0
DWIDTH 7 0
BBX 23 12 -5 1
BITMAP
000C00
3F9400
406E02
80F1FC
418000
3F0000
023000
06C000
078000
0D2000
1A4000
038000
ENDCHAR
STARTCHAR E082
ENCODING 57474
SWIDTH 360 0
DWIDTH 6 0
BBX 23 13 -5 0
BITMAP
000C00
3FB800
C06C02
80F3FC
418000
3F0000
020000
060000
042000
084000
098000
0A0000
040000
ENDCHAR
STARTCHAR E083
ENCODING 57475
SWIDTH 360 0
DWIDTH 6 0
BBX 21 13 -13 -5
BITMAP
000120
000260
0004C0
000980
000F80
000100
000200
000600
0005F0
003808
FFD010
016820
00C7C0
ENDCHAR
STARTCHAR E084
ENCODING 57476
SWIDTH 360 0
DWIDTH 6 0
BBX 20 12 -11 -4
BITMAP
000F00
001100
000600
000200
000200
000200
000600
000DF0
003810
FFD010
016820
0187C0
ENDCHAR
STARTCHAR E085
ENCODING 57477
SWIDTH 0 0
DWIDTH 0 0
BBX 0 0 0 0
BITMAP
ENDCHAR
STARTCHAR FB01
ENCODING 64257
SWIDTH 480 0
DWIDTH 8 0
BBX 11 13 -3 -1
BITMAP
00E0
0140
02A0
0500
0A40
1CC0
1180
2740
7A80
6100
A000
A000
C000
ENDCHAR
STARTCHAR FB02
ENCODING 64258
SWIDTH 660 0
DWIDTH 11 0
BBX 17 14 -3 -2
BITMAP
000380
00EC80
015880
027100
04A600
0B4800
1CF000
108400
270800
393000
624000
A18000
A00000
C00000
ENDCHAR
ENDFONT
